<svg width="711" height="425" viewBox="0 0 711 425" fill="none" xmlns="http://www.w3.org/2000/svg">
<path d="M0.991664 304.503C-0.803687 340.039 40.5321 389.062 117.476 386.921C194.419 384.78 222.205 371.936 290.599 378.358C358.993 384.78 503.262 452.213 613.335 412.61C723.407 373.006 756.535 226.366 625.09 196.396C493.645 166.426 304.491 186.762 243.578 208.919C189.589 228.592 4.24039 241.351 0.991664 304.503Z" fill="#00C0CD"/>
<path d="M0.329555 295.94C-1.4658 331.476 39.87 380.499 116.814 378.358C193.757 376.217 221.542 363.373 289.937 369.795C358.331 376.217 502.6 443.65 612.673 404.047C722.745 364.443 755.873 217.803 624.428 187.833C492.982 157.863 303.829 178.2 242.916 200.356C188.884 220.03 3.53554 232.788 0.329555 295.94Z" fill="#63D5DD"/>
<path d="M208.313 288.19C202.884 294.077 200.683 300.243 201.281 302.383C201.879 304.524 402.809 351.171 408.152 350.635C413.496 350.1 540.667 278.921 540.667 276.245C540.667 273.569 527.308 260.532 527.308 260.532L409.755 305.316L208.313 288.19Z" fill="#52C3C6"/>
<path d="M408.153 344.213C402.809 345.284 206.176 302.469 202.97 296.047C199.764 289.625 192.283 155.829 192.283 155.829L403.878 207.956L408.153 344.213Z" fill="#FFEA95"/>
<path d="M403.877 207.956L525.854 127.657C525.854 127.657 541.713 266.441 540.644 268.582C539.575 270.722 413.495 343.143 408.13 344.214L403.877 207.956Z" fill="#FFE169"/>
<path d="M192.283 155.829C192.283 155.829 324.797 87.3258 331.209 87.3258C337.621 87.3258 334.052 190.745 334.052 190.745L192.283 155.829Z" fill="#FFE169"/>
<path d="M525.855 127.657C520.277 125.859 406.849 96.9591 331.209 87.3258L334.052 190.744L403.878 207.87L525.855 127.657Z" fill="#FFE67B"/>
<path d="M403.877 207.956L525.854 127.657C525.854 127.657 586.618 171.178 586.618 172.398C586.618 173.619 478.149 256.572 476.012 256.037C473.874 255.502 403.877 207.956 403.877 207.956Z" fill="#FFD31D"/>
<path d="M192.282 155.829C192.282 155.829 155.413 190.744 155.947 194.362L194.419 190.744L192.282 155.829Z" fill="#FFD31D"/>
<path d="M223.745 47.2514C227.742 45.2177 236.034 61.7013 249.393 54.2088C262.751 46.7162 256.339 36.5477 259.011 34.407C261.682 32.2663 303.894 24.8807 321.527 48.3217C321.527 48.3217 313.512 69.3009 311.375 70.3713C309.238 71.4416 292.673 60.738 291.605 62.8787C290.536 65.0194 323.13 106.036 321.591 108.797C320.053 111.559 251.594 143.049 251.594 143.049C245.716 141.979 228.084 95.3964 225.946 95.953C224.279 96.4882 227.271 114.149 223.809 117.36C221.372 119.501 196.024 119.501 192.818 115.755C189.612 112.008 203.419 57.4627 223.745 47.2514Z" fill="#FF8C10"/>
<path d="M366.219 110.617C367.522 109.953 374.768 71.5915 392.828 76.7935C410.889 81.9954 379.855 147.587 375.965 147.951C372.075 148.315 328.708 109.161 343.499 94.4331C353.651 84.2646 366.219 110.617 366.219 110.617Z" fill="#3BCF96"/>
<path d="M528.056 27.2355C528.056 27.2355 475.905 -0.444136 470.476 0.0054173C465.047 0.454971 417.449 95.3322 416.53 100.32C415.611 105.308 437.39 118.923 440.041 118.923C442.691 118.923 482.402 47.444 484.925 48.5786C487.447 49.7132 466.394 126.201 466.928 129.37C467.463 132.538 491.401 141.636 499.565 139.817C507.73 137.997 528.056 27.2355 528.056 27.2355Z" fill="#63D5DD"/>
<path d="M509.824 265.413C509.824 265.413 513.5 330.641 515.168 331.54C517.305 332.675 520.981 331.904 521.815 330.128C522.648 328.351 517.39 264.107 517.39 264.107L509.824 265.413Z" fill="#E2C7A8"/>
<path d="M524.358 320.301L521.815 330.127L517.391 264.107L520.191 259.462C520.191 259.462 524.935 318.139 524.358 320.301Z" fill="#D3B188"/>
<path d="M504.652 208.148C504.652 208.148 508.329 273.377 510.017 274.276C512.154 275.41 515.831 274.64 516.664 272.863C517.498 271.086 512.24 206.843 512.24 206.843L504.652 208.148Z" fill="#E2C7A8"/>
<path d="M519.208 263.037L516.664 272.863L512.24 206.843L515.04 202.219C515.04 202.219 519.764 260.875 519.208 263.037Z" fill="#D3B188"/>
<path d="M411.592 210.482C411.592 210.482 415.268 275.689 416.935 276.588C419.072 277.722 422.749 276.952 423.604 275.175C424.458 273.398 419.179 209.155 419.179 209.155L411.592 210.482Z" fill="#E2C7A8"/>
<path d="M426.149 265.349L423.606 275.153L419.182 209.133L422.046 204.509C422.046 204.509 426.705 263.208 426.149 265.349Z" fill="#D3B188"/>
<path d="M380.367 321.072C380.367 321.072 385.069 386.3 387.207 387.199C389.921 388.334 394.644 387.563 395.756 385.765C396.867 383.967 389.985 319.766 389.985 319.766L380.367 321.072Z" fill="#E2C7A8"/>
<path d="M398.961 375.96L395.712 385.765L389.984 319.766L393.554 315.121C393.554 315.121 399.688 373.798 398.961 375.96Z" fill="#D3B188"/>
<path d="M413.859 270.058C413.859 270.058 418.561 335.286 420.699 336.164C423.413 337.299 428.137 336.528 429.248 334.751C430.359 332.974 423.541 268.731 423.541 268.731L413.859 270.058Z" fill="#E2C39A"/>
<path d="M432.454 324.925L429.205 334.751L423.541 268.731L426.149 265.349C426.149 265.349 433.159 322.785 432.454 324.925Z" fill="#D3B188"/>
<path d="M475.199 318.76C475.199 318.76 479.901 383.988 482.039 384.866C484.753 386.001 489.477 385.251 490.588 383.453C491.699 381.655 484.924 317.433 484.924 317.433L475.199 318.76Z" fill="#E2C7A8"/>
<path d="M493.795 373.627L490.547 383.453L484.883 317.433L488.452 312.809C488.452 312.809 494.501 371.486 493.795 373.627Z" fill="#D3B188"/>
<path d="M404.178 164.028C405.246 161.524 509.27 156.172 511.407 157.242C513.544 158.312 518.033 208.962 517.328 210.396C516.622 211.831 407.747 219.687 407.747 218.788C407.747 217.889 404.178 164.028 404.178 164.028Z" fill="#E2C7A8"/>
<path d="M380.516 321.5L380.964 328.65C380.964 328.65 483.706 325.182 485.394 324.369C487.083 323.555 521.109 271.107 520.938 268.71C520.767 266.312 520.553 258.884 520.553 258.884L380.516 321.5Z" fill="#D6B999"/>
<path d="M414.714 267.126C423.263 263.422 518.416 256.765 520.554 258.905C522.691 261.046 487.724 315.292 484.882 317.433C482.039 319.574 382.996 324.005 380.516 321.5C378.037 318.996 410.824 268.838 414.714 267.126Z" fill="#E2C7A8"/>
</svg>
