<svg width="191" height="190" viewBox="0 0 191 190" fill="none" xmlns="http://www.w3.org/2000/svg">
<path d="M191 0H0V190H191V0Z" fill="#484848"/>
<path d="M37.5917 37H45.4866L63 84H53.7913L49.5064 72.313H33.4213L29.2027 84H20L37.5917 37ZM47.9033 65.8606L41.5512 47.4075L34.9219 65.8606H47.9033Z" fill="white"/>
<path d="M36.2878 160C33.4589 160.002 30.6485 159.533 27.9664 158.609C25.4111 157.772 23.0432 156.423 21 154.639L24.2254 149.1C26.0911 150.483 28.117 151.622 30.2566 152.491C32.117 153.243 34.0967 153.635 36.0959 153.648C37.5154 153.725 38.9264 153.381 40.1607 152.657C40.6315 152.36 41.0167 151.939 41.2769 151.438C41.5371 150.938 41.663 150.375 41.6415 149.808C41.6572 149.227 41.499 148.655 41.188 148.17C40.8771 147.684 40.4285 147.309 39.9029 147.093C38.0644 146.278 36.166 145.614 34.2254 145.105C32.0312 144.49 30.1607 143.874 28.6079 143.314C27.2752 142.854 26.0149 142.197 24.8669 141.363C23.9871 140.712 23.2785 139.847 22.8046 138.846C22.3481 137.772 22.1271 136.608 22.1571 135.436C22.1323 133.789 22.4747 132.157 23.1583 130.666C23.8173 129.261 24.7763 128.026 25.964 127.054C27.2312 126.038 28.6703 125.273 30.2086 124.795C31.9105 124.252 33.6843 123.984 35.4664 124.001C37.886 123.981 40.2929 124.362 42.5948 125.127C44.8495 125.899 46.925 127.139 48.6919 128.771L45.1967 134.101C43.6738 132.891 41.99 131.91 40.1967 131.19C38.6657 130.585 37.0408 130.27 35.4005 130.26C34.1132 130.212 32.8384 130.534 31.7194 131.19C31.2254 131.496 30.823 131.936 30.5565 132.461C30.29 132.987 30.1697 133.577 30.2086 134.168C30.1876 134.702 30.3122 135.23 30.5684 135.695C30.8527 136.138 31.2401 136.502 31.6955 136.753C32.3415 137.121 33.0225 137.42 33.7278 137.646C34.5672 137.933 35.6103 138.231 36.8573 138.538C39.1755 139.158 41.1739 139.773 42.8525 140.385C44.2977 140.891 45.6661 141.604 46.9173 142.502C47.8966 143.212 48.6929 144.157 49.2374 145.253C49.7655 146.429 50.0239 147.713 49.9928 149.008C50.0516 150.553 49.7479 152.09 49.1073 153.49C48.4667 154.89 47.508 156.112 46.3118 157.052C43.8458 159.021 40.5044 160.004 36.2878 160Z" fill="white"/>
<path d="M56 119.748V111H65V119.748H56ZM56 159V124.544H65V159H56Z" fill="white"/>
<path d="M94 132.09C91.4698 132.087 88.9684 132.615 86.6644 133.64C84.6182 134.525 82.9677 136.105 82.0179 138.089V159H73V124.435H81.2799V131.826C81.8819 130.674 82.6277 129.599 83.5 128.627C84.3257 127.714 85.2505 126.892 86.2579 126.176C87.1798 125.51 88.1869 124.966 89.2534 124.558C90.1874 124.203 91.1785 124.014 92.1802 124H93.2933C93.5306 124 93.7672 124.023 94 124.067V132.09Z" fill="white"/>
<path d="M107.713 159L95 124H104.09L112.861 151.721L121.688 124H130L117.287 159H107.713Z" fill="white"/>
<path d="M149.575 159.993C146.947 160.031 144.337 159.547 141.902 158.571C139.728 157.698 137.757 156.399 136.109 154.752C134.461 153.106 133.17 151.147 132.314 148.994C131.437 146.821 130.991 144.503 131.001 142.164C130.977 139.778 131.402 137.409 132.252 135.174C133.079 133.027 134.339 131.066 135.954 129.41C137.625 127.714 139.63 126.37 141.845 125.462C144.309 124.46 146.954 123.963 149.619 124.003C152.262 123.959 154.886 124.456 157.324 125.462C159.499 126.375 161.467 127.704 163.115 129.373C164.707 131.012 165.943 132.952 166.749 135.076C167.583 137.24 168.007 139.536 168 141.85C168 142.429 168 142.977 167.969 143.513C167.954 143.959 167.898 144.402 167.8 144.837H140.557C140.664 146.103 141.005 147.339 141.564 148.483C142.593 150.539 144.384 152.128 146.567 152.923C147.642 153.326 148.782 153.535 149.932 153.539C151.709 153.544 153.458 153.098 155.01 152.246C156.474 151.522 157.631 150.311 158.275 148.828L166.017 150.916C164.631 153.651 162.456 155.922 159.763 157.444C156.672 159.204 153.145 160.086 149.575 159.993ZM158.731 139.054C158.618 136.666 157.569 134.415 155.804 132.772C154.507 131.633 152.915 130.869 151.204 130.566C149.493 130.263 147.73 130.432 146.111 131.054C145.075 131.46 144.126 132.056 143.315 132.809C142.489 133.586 141.817 134.507 141.333 135.525C140.804 136.628 140.494 137.819 140.42 139.036L158.731 139.054Z" fill="white"/>
<path d="M143 84H134.106V64.7363C134.106 61.9808 133.631 59.9691 132.682 58.7011C132.234 58.0868 131.64 57.5917 130.951 57.2598C130.263 56.928 129.502 56.7697 128.737 56.7991C126.893 56.8264 125.125 57.5303 123.775 58.7743C122.187 60.1638 121.034 61.9748 120.453 63.9925V84H111.553V64.7363C111.553 61.9808 111.078 59.9691 110.129 58.7011C109.681 58.0868 109.087 57.5917 108.398 57.2598C107.71 56.928 106.949 56.7697 106.184 56.7991C104.353 56.8412 102.601 57.5412 101.253 58.7682C99.6463 60.133 98.4803 61.9349 97.9004 63.9499V84H89V49.624H97.0128V55.9883C98.2412 53.8106 100.071 52.0238 102.289 50.8371C104.645 49.5966 107.281 48.9674 109.95 49.0083C112.872 49.0083 115.122 49.7093 116.73 51.1053C118.303 52.4527 119.386 54.2729 119.812 56.287C121.1 54.0529 122.952 52.1876 125.187 50.8737C127.44 49.6104 129.994 48.9663 132.583 49.0083C134.405 48.9355 136.213 49.3437 137.823 50.1909C139.135 50.9151 140.233 51.9658 141.009 53.239C141.786 54.5804 142.314 56.0483 142.569 57.5733C142.855 59.1979 142.999 60.8438 143 62.4929V84Z" fill="white"/>
<path d="M150 44.7634V36H159V44.7634H150ZM150 84V49.5634H159V84H150Z" fill="white"/>
<path d="M137.913 109.529C122.746 113.581 113.897 102.339 115.744 95.4111C117.592 88.4836 123.232 88.5632 123.947 93.6303C124.292 96.1088 121.847 99.8602 118.706 103.318C115.436 106.928 110.99 110.239 108.237 109.964C103.311 109.48 102.079 102.137 100.232 97.4368C99.302 95.0807 99.0003 94.1015 97.3807 94.3341C94.628 94.7318 93.5996 97.7917 93.2363 101.635C92.8422 105.857 93.187 110.876 91.5059 110.998C89.4737 111.139 88.2544 103.618 86.2284 99.0462C85.0337 96.3597 82.6013 95.5213 82.1332 95.6192C75.3593 96.9961 76.8065 110.049 74.3371 110.496C72.9084 110.747 72.0031 106.212 70.5252 102.228C69.4475 99.3155 67.791 96.7942 66.7503 96.3107C64.287 95.1602 49.3167 101.659 47.2722 102.039C45.9469 102.322 44.5635 102.122 43.3741 101.476C42.826 101.194 42.8999 100.442 43.4665 99.9152C44.2732 99.1686 44.7474 100.998 47.8326 100.172C50.9178 99.3461 63.2833 93.5936 67.1629 94.4932C71.1964 95.4234 73.8875 107.62 74.3432 107.534C74.7989 107.449 74.3432 94.9889 82.2502 94.0342C83.2663 93.9118 85.8096 94.8114 87.3307 97.5163C89.5414 101.439 90.7115 107.663 91.1118 107.62C91.7892 107.553 89.9232 93.6609 96.9435 92.6634C97.3314 92.6083 99.4621 92.5716 100.497 94.3524C102.221 97.3205 103.576 103.049 105.362 106.194C105.675 106.794 106.137 107.304 106.706 107.674C107.274 108.045 107.929 108.265 108.607 108.311C109.682 108.248 110.72 107.904 111.618 107.314C113.904 105.753 115.974 103.901 117.776 101.806C118.755 100.699 119.741 99.9703 120.523 98.8137C121.449 97.6353 122.115 96.2755 122.475 94.8236C122.697 93.7894 122.413 91.5557 120.979 91.5557C119.544 91.5557 117.666 93.8078 117.438 96.0537C117.336 98.3139 117.881 100.557 119.008 102.522C122.204 107.834 130.868 109.034 132.162 109.101C133.885 109.115 135.602 108.887 137.261 108.422C138.351 108.122 137.913 109.529 137.913 109.529Z" fill="white"/>
<path d="M148.885 103.486C149.334 103.27 151.794 90.4198 158.054 92.1624C164.314 93.905 153.584 115.87 152.243 115.999C150.903 116.128 135.959 103.005 141.056 98.0714C144.547 94.6651 148.885 103.486 148.885 103.486Z" fill="#FFD31D"/>
</svg>
