<svg width="155" height="130" viewBox="0 0 155 130" fill="none" xmlns="http://www.w3.org/2000/svg">
<path d="M18.7456 1.40643H27.1584L45.8206 50.4765H36.0078L31.4418 38.2748H14.3017L9.80631 50.4765H0L18.7456 1.40643ZM29.7336 31.5382L22.9649 12.2724L15.9007 31.5382H29.7336Z" fill="#484848"/>
<path d="M17.5512 129.852C14.5209 129.854 11.5105 129.364 8.63751 128.4C5.90033 127.527 3.36382 126.119 1.17522 124.258L4.63022 118.478C6.62865 119.921 8.79881 121.11 11.0907 122.017C13.0835 122.801 15.2041 123.211 17.3457 123.224C18.8661 123.304 20.3776 122.945 21.6997 122.19C22.204 121.88 22.6167 121.441 22.8954 120.918C23.1742 120.396 23.3089 119.809 23.286 119.217C23.3028 118.611 23.1333 118.014 22.8002 117.508C22.4671 117.002 21.9866 116.609 21.4236 116.385C19.4542 115.534 17.4207 114.841 15.342 114.311C12.9916 113.668 10.9879 113.026 9.32466 112.442C7.89702 111.962 6.54705 111.276 5.31737 110.406C4.37499 109.727 3.61591 108.824 3.10822 107.779C2.61927 106.659 2.3825 105.444 2.41465 104.222C2.38807 102.503 2.75491 100.8 3.48712 99.2447C4.19309 97.7783 5.22034 96.4899 6.49258 95.475C7.84995 94.4159 9.39144 93.6169 11.0393 93.1182C12.8623 92.5514 14.7624 92.2719 16.6714 92.2897C19.2631 92.2695 21.8413 92.6663 24.3071 93.4649C26.7222 94.2699 28.9456 95.5641 30.8382 97.2667L27.0942 102.828C25.4629 101.565 23.6593 100.542 21.7383 99.7906C20.0983 99.1598 18.3577 98.8313 16.6007 98.8209C15.2218 98.771 13.8562 99.1068 12.6576 99.7906C12.1284 100.11 11.6974 100.569 11.412 101.117C11.1265 101.666 10.9976 102.282 11.0393 102.899C11.0167 103.455 11.1502 104.007 11.4246 104.491C11.7292 104.954 12.1441 105.334 12.632 105.596C13.324 105.98 14.0535 106.292 14.809 106.527C15.7081 106.827 16.8255 107.137 18.1613 107.458C20.6444 108.105 22.785 108.747 24.5832 109.385C26.1312 109.913 27.597 110.657 28.9373 111.594C29.9863 112.335 30.8392 113.32 31.4226 114.465C31.9882 115.691 32.265 117.032 32.2317 118.382C32.2947 119.995 31.9694 121.599 31.2832 123.059C30.597 124.52 29.57 125.795 28.2887 126.776C25.6471 128.831 22.0679 129.856 17.5512 129.852Z" fill="#484848"/>
<path d="M38.2171 87.9035V78.7073H47.4775V87.9035H38.2171ZM38.2171 129.164V92.9447H47.4775V129.164H38.2171Z" fill="#484848"/>
<path d="M77.4037 100.966C74.8055 100.963 72.2368 101.517 69.8708 102.591C67.7695 103.518 66.0747 105.174 65.0993 107.253V129.165H55.8388V92.9448H64.3415V100.69C64.9597 99.4821 65.7255 98.3561 66.6213 97.3374C67.4692 96.3808 68.4189 95.5195 69.4534 94.7686C70.4 94.0712 71.4343 93.5012 72.5295 93.0732C73.4886 92.7013 74.5063 92.5034 75.5349 92.4888H76.678C76.9216 92.4891 77.1646 92.5128 77.4037 92.5595V100.966Z" fill="#484848"/>
<path d="M92.3347 129.165L78.9963 92.9448H88.5329L97.7356 121.632L106.996 92.9448H115.717L102.379 129.165H92.3347Z" fill="#484848"/>
<path d="M136.081 129.852C133.381 129.89 130.702 129.386 128.201 128.368C125.969 127.458 123.945 126.103 122.253 124.387C120.56 122.67 119.235 120.627 118.356 118.382C117.456 116.116 116.998 113.698 117.008 111.26C116.984 108.772 117.419 106.301 118.292 103.971C119.142 101.732 120.435 99.6876 122.094 97.9603C123.81 96.1913 125.868 94.7907 128.143 93.8438C130.673 92.7985 133.389 92.2805 136.126 92.3218C138.84 92.2757 141.534 92.794 144.038 93.8438C146.271 94.7956 148.292 96.1818 149.984 97.9217C151.618 99.6306 152.888 101.654 153.716 103.868C154.572 106.125 155.008 108.519 155 110.933C155 111.536 155 112.108 154.968 112.667C154.953 113.131 154.895 113.593 154.794 114.047H126.82C126.93 115.367 127.28 116.656 127.854 117.849C128.911 119.993 130.75 121.65 132.992 122.479C134.096 122.899 135.266 123.117 136.447 123.121C138.272 123.126 140.068 122.662 141.662 121.773C143.165 121.018 144.352 119.755 145.014 118.209L152.964 120.386C151.541 123.238 149.307 125.606 146.542 127.193C143.368 129.028 139.747 129.949 136.081 129.852ZM145.483 108.017C145.366 105.527 144.289 103.179 142.477 101.467C141.145 100.278 139.51 99.4822 137.753 99.1659C135.996 98.8497 134.186 99.0259 132.523 99.6749C131.459 100.098 130.485 100.719 129.653 101.505C128.804 102.315 128.114 103.275 127.617 104.337C127.074 105.487 126.756 106.729 126.679 107.998L145.483 108.017Z" fill="#484848"/>
<path d="M128.683 50.4764H119.416V30.1831C119.416 27.2804 118.922 25.1611 117.933 23.8254C117.466 23.1783 116.846 22.6567 116.129 22.3071C115.412 21.9575 114.62 21.7908 113.823 21.8217C111.901 21.8505 110.059 22.592 108.653 23.9024C106.997 25.3663 105.796 27.274 105.191 29.3996V50.4764H95.9182V30.1831C95.9182 27.2804 95.4237 25.1611 94.4347 23.8254C93.9681 23.1783 93.3486 22.6567 92.6315 22.3071C91.9143 21.9575 91.1219 21.7908 90.3247 21.8217C88.417 21.8661 86.5908 22.6035 85.1871 23.896C83.5127 25.3338 82.2978 27.232 81.6936 29.3547V50.4764H72.4203V14.2631H80.7688V20.9676C82.0487 18.6735 83.9555 16.7912 86.266 15.5411C88.7211 14.2343 91.4675 13.5714 94.2485 13.6145C97.2925 13.6145 99.6365 14.353 101.313 15.8236C102.951 17.243 104.079 19.1605 104.524 21.2823C105.865 18.9288 107.795 16.9638 110.124 15.5796C112.471 14.2488 115.132 13.5703 117.83 13.6145C119.728 13.5379 121.612 13.9679 123.288 14.8603C124.656 15.6233 125.8 16.7301 126.609 18.0713C127.418 19.4845 127.968 21.0307 128.233 22.6373C128.532 24.3487 128.682 26.0826 128.683 27.8198V50.4764Z" fill="#484848"/>
<path d="M136.768 9.21549V0H146.029V9.21549H136.768ZM136.768 50.4765V14.2631H146.029V50.4765H136.768Z" fill="#484848"/>
<path d="M123.468 77.6413C107.651 81.8926 98.4225 70.0955 100.349 62.8259C102.276 55.5562 108.158 55.6397 108.903 60.9571C109.263 63.558 106.713 67.4946 103.438 71.123C100.028 74.912 95.3914 78.3862 92.5208 78.0973C87.3832 77.5899 86.0988 69.8836 84.1722 64.9515C83.2025 62.4791 82.8878 61.4516 81.1989 61.6956C78.3283 62.113 77.2558 65.324 76.8769 69.357C76.4659 73.7881 76.8255 79.0541 75.0723 79.1826C72.9531 79.3303 71.6816 71.4377 69.5687 66.6405C68.3229 63.8213 65.7862 62.9415 65.2982 63.0442C58.234 64.4892 59.7432 78.1872 57.168 78.656C55.6781 78.9193 54.7341 74.1606 53.1928 69.9799C52.069 66.9231 50.3415 64.2772 49.2561 63.7699C46.6874 62.5626 31.0756 69.3827 28.9435 69.7808C27.5615 70.0776 26.1188 69.8679 24.8785 69.19C24.3069 68.8946 24.384 68.1047 24.9748 67.5524C25.8161 66.769 26.3105 68.6891 29.5279 67.8221C32.7453 66.9552 45.6406 60.9186 49.6864 61.8626C53.8928 62.8387 56.6992 75.6377 57.1744 75.5477C57.6496 75.4578 57.1744 62.3828 65.4202 61.3809C66.4798 61.2525 69.132 62.1965 70.7183 65.035C73.0237 69.1515 74.2439 75.6826 74.6613 75.6377C75.3678 75.567 73.4219 60.9892 80.7429 59.9424C81.1475 59.8846 83.3695 59.8461 84.4484 61.7149C86.2465 64.8295 87.6594 70.8405 89.5217 74.1413C89.8481 74.7707 90.3307 75.3057 90.9234 75.6948C91.5161 76.0839 92.1988 76.3141 92.9061 76.3633C94.0267 76.2966 95.1099 75.9355 96.0464 75.3166C98.4297 73.678 100.589 71.735 102.468 69.5368C103.489 68.3744 104.517 67.6102 105.333 66.3965C106.299 65.1599 106.992 63.733 107.368 62.2094C107.599 61.1241 107.304 58.7801 105.808 58.7801C104.311 58.7801 102.353 61.1433 102.115 63.5002C102.01 65.872 102.577 68.2254 103.753 70.2882C107.086 75.8624 116.121 77.1211 117.47 77.1918C119.267 77.207 121.058 76.967 122.787 76.4789C123.924 76.1643 123.468 77.6413 123.468 77.6413Z" fill="#484848"/>
<path d="M135.526 70.7077C135.989 70.4826 138.523 57.0373 144.972 58.8605C151.422 60.6838 140.367 83.6654 138.986 83.8004C137.605 83.9355 122.21 70.205 127.461 65.043C131.057 61.4791 135.526 70.7077 135.526 70.7077Z" fill="#FFD31D"/>
</svg>
